<svg id="Layer_3" enable-background="new 0 0 64 64" height="512" viewBox="0 0 64 64" width="512" xmlns="http://www.w3.org/2000/svg"><g><path d="m62.447 22.895c.339-.17.553-.516.553-.895 0-11.58-9.421-21-21-21-.379 0-.725.214-.895.553l-9.928 19.855-2.177 2.177c-.645.645-1 1.502-1 2.415 0 .181.025.358.052.534l-2.759 2.759c-.391.391-.391 1.023 0 1.414l1.293 1.293-24.586 24.585c-.645.645-1 1.502-1 2.415s.355 1.77 1 2.414l.586.586c.645.645 1.503 1 2.414 1s1.769-.355 2.414-1l24.586-24.586 1.293 1.293c.195.195.451.293.707.293s.512-.098.707-.293l2.759-2.759c.176.027.353.052.534.052.911 0 1.769-.355 2.414-1l2.178-2.178zm-19.834-19.885c1.639.052 3.219.332 4.729.776l-7.194 11.691 1.703 1.048 7.422-12.061c2.003.834 3.827 2.002 5.416 3.433l-11.396 11.396 1.414 1.414 11.396-11.396c1.431 1.589 2.599 3.413 3.433 5.416l-12.061 7.422 1.049 1.703 11.69-7.194c.444 1.51.723 3.09.776 4.729l-18.793 9.396-8.98-8.98zm-36.613 57.575c-.535.535-1.465.535-2 0l-.586-.585c-.268-.267-.414-.622-.414-1s.146-.733.414-1l24.586-24.586 2.586 2.586zm28-23.999-6.586-6.586 1.586-1.586 6.586 6.586zm5-3.001c-.535.535-1.465.535-2 0l-6.586-6.585c-.268-.267-.414-.622-.414-1s.146-.733.414-1l1.586-1.586 8.586 8.586z"/><path d="m61 39.021c0-.007 0-.014 0-.021 0-2.757-2.243-5-5-5-2.019 0-3.809 1.215-4.584 3.034-2.483.29-4.416 2.406-4.416 4.966 0 2.757 2.243 5 5 5 .817 0 1.625-.209 2.349-.602.934 1.018 2.24 1.602 3.651 1.602 2.757 0 5-2.243 5-5 0-1.568-.752-3.04-2-3.979zm-3 6.979c-1.056 0-2.015-.551-2.566-1.475-.15-.252-.404-.426-.694-.474-.055-.009-.109-.014-.164-.014-.235 0-.465.083-.647.238-.391.331-1.041.725-1.929.725-1.654 0-3-1.346-3-3s1.346-3 2.931-3.003c.037.005.137.016.174.017.469.014.885-.298 1.001-.752.339-1.332 1.53-2.262 2.894-2.262 1.654 0 3 1.346 3 3 0 .097-.016.189-.029.282l-.016.116c-.052.404.146.8.502 1 .952.535 1.543 1.532 1.543 2.602 0 1.654-1.346 3-3 3z"/><path d="m19 14c.817 0 1.625-.209 2.349-.602.934 1.018 2.24 1.602 3.651 1.602 2.757 0 5-2.243 5-5 0-1.568-.752-3.04-2-3.979 0-.006 0-.014 0-.021 0-2.757-2.243-5-5-5-2.019 0-3.809 1.215-4.584 3.034-2.483.29-4.416 2.406-4.416 4.966 0 2.757 2.243 5 5 5zm-.069-8.003c.037.005.137.016.174.017.453.02.885-.298 1.001-.752.339-1.332 1.53-2.262 2.894-2.262 1.654 0 3 1.346 3 3 0 .097-.016.189-.029.282l-.016.116c-.052.404.146.8.502 1 .952.535 1.543 1.532 1.543 2.602 0 1.654-1.346 3-3 3-1.056 0-2.015-.551-2.566-1.475-.15-.252-.404-.426-.694-.474-.055-.009-.109-.014-.164-.014-.235 0-.465.083-.647.238-.391.331-1.041.725-1.929.725-1.654 0-3-1.346-3-3s1.346-3 2.931-3.003z"/></g></svg>