<svg height="512pt" viewBox="0 -16 512 512" width="512pt" xmlns="http://www.w3.org/2000/svg"><path d="m243.269531 216.410156c-31.132812-6.613281-59.652343-29.671875-71.96875-62.558594-11.769531 18.929688-19 40.949219-20.140625 64.558594v.011719c27.285156 22.941406 67.160156 21.15625 92.109375-2.011719zm0 0"/><path d="m261.800781 188.691406c-17.320312-26.316406-21.183593-63.203125-6.652343-95.140625-22.679688 5.328125-43.179688 16.390625-59.878907 31.558594 3.066407 34.75 31.671875 62.148437 66.53125 63.582031zm0 0"/><path d="m301 225c0 8.285156-6.714844 15-15 15s-15-6.714844-15-15 6.714844-15 15-15 15 6.714844 15 15zm0 0"/><path d="m249.761719 249.121094c-14.289063 9.40625-33.644531 15.597656-53.691407 15.597656-14.199218 0-28.398437-3-41.550781-9.007812 5.308594 22.710937 16.359375 43.238281 31.53125 59.960937 34.957031-3.023437 62.375-31.902344 63.710938-66.550781zm0 0"/><path d="m0 0v450h61v30h90v-30h210v30h90v-30h61v-450zm91 360h-30v-30h30zm0-60h-30v-30h30zm0-60h-30v-30h30zm0-63h-30v-120h30zm195 213c-90.980469 0-165-74.019531-165-165s74.019531-165 165-165 165 74.019531 165 165-74.019531 165-165 165zm0 0"/><path d="m376 215.070312c-18.234375 0-35.191406 7.089844-47.199219 18.429688 17.007813 3.472656 34.855469 12.726562 49.007813 26.878906 10.28125 10.28125 18.042968 22.421875 22.960937 35.652344 11.761719-18.941406 18.96875-40.992188 20.070313-64.609375-12.539063-10.59375-28.238282-16.351563-44.839844-16.351563zm0 0"/><path d="m342.671875 154.320312c-12.15625 12.15625-19.578125 28.300782-20.351563 46.410157 13.460938-9.097657 33.113282-15.660157 53.679688-15.660157 14.53125 0 28.589844 3.089844 41.421875 8.960938-5.351563-22.679688-16.421875-43.171875-31.613281-59.851562-16.296875 1.410156-31.429688 8.429687-43.136719 20.140624zm0 0"/><path d="m310.199219 261.25c9.90625 15.457031 15.640625 33.832031 15.640625 53.671875 0 14.566406-3.101563 28.667969-9.011719 41.527344 22.710937-5.320313 43.210937-16.390625 59.921875-31.578125-1.378906-16.351563-8.421875-31.542969-20.148438-43.269532-12.464843-12.464843-28.851562-19.65625-46.402343-20.351562zm0 0"/><path d="m277.449219 267.761719c-5.769531 29.476562-28.980469 59.34375-62.648438 71.898437 18.9375 11.800782 41.007813 19.050782 64.640625 20.179688 10.617188-12.550782 16.398438-28.289063 16.398438-44.917969 0-18.128906-7.058594-35.167969-18.390625-47.160156zm0 0"/><path d="m294.550781 182.230469c3.3125-16.558594 12.476563-34.699219 26.910157-49.121094 10.25-10.25 22.328124-17.988281 35.507812-22.910156-18.917969-11.738281-40.9375-18.929688-64.519531-20.039063-23.117188 27.554688-20.847657 67.792969 2.101562 92.070313zm0 0"/></svg>