<svg xmlns="http://www.w3.org/2000/svg" width="512" height="512" viewBox="0 0 415.882 415.882">
    <path d="M297.058 386.176c-77.429 0-143.291-49.71-167.837-118.823h167.837v-29.706H121.507c-1.635-9.684-2.683-19.565-2.683-29.706s1.048-20.022 2.683-29.706h175.552v-29.706H129.221C153.767 79.416 219.63 29.706 297.058 29.706c26.515 0 52.246 5.845 76.484 17.391l12.634-26.834C357.92 6.817 328.026 0 297.058 0 203.049 0 123.512 62.746 97.875 148.529H29.706v29.706h61.783c-1.402 9.729-2.372 19.594-2.372 29.706s.97 19.977 2.372 29.706H29.706v29.706h68.169c25.637 85.783 105.174 148.529 199.184 148.529 30.997 0 60.891-6.817 89.117-20.278l-12.648-26.805c-24.194 11.531-49.926 17.377-76.47 17.377z"/>
</svg>
