<svg xmlns="http://www.w3.org/2000/svg" width="4000" height="3326" viewBox="0 0 4000 3326">
    <path fill="#132651" stroke-width="7.09334087" d="M912.57 863.356H3088.22a8.097 8.097 0 100-16.194H912.57a8.097 8.097 0 000 16.194zM1017.936 838.167h1964.919a5.398 5.398 0 000-10.796h-1964.92a5.398 5.398 0 100 10.796zM1865.589 603.188c25.77 9.257 37.006 8.597 55.505 19.826-5.285-7.93-15.194-16.52-42.29-32.38a62.976 62.976 0 01-31.722-52.868c0-55.505 42.957-55.505 81.283-42.95-46.263-33.04-112.998-23.131-112.998 38.985a73.875 73.875 0 0050.222 69.387zM1930.35 488.872a66.813 66.813 0 01-23.13-52.207c0-35.027 33.7-53.527 48.9-69.387 15.202-15.861 44.937-33.708 43.618-89.873-9.257 70.707-122.254 88.546-122.254 148.031 0 31.707 22.465 52.853 52.867 63.436zM2030.8 748.58a16.678 16.678 0 00-17.195-17.187 16.112 16.112 0 00-15.194 9.257 16.108 16.108 0 00-15.2-9.257 16.87 16.87 0 00-1.313 33.708 14.39 14.39 0 00-.667 5.277 17.07 17.07 0 0017.18 17.194 17.504 17.504 0 0017.187-17.194c0-1.972-.666-3.298-.666-4.618a17.792 17.792 0 0015.867-17.18zM2153.713 537.766a61.427 61.427 0 01-31.728 52.867c-27.09 15.86-37.006 24.45-41.624 32.381 18.5-11.229 29.075-10.57 54.846-19.826a73.033 73.033 0 0050.22-69.387c0-62.116-66.748-72.026-112.997-38.985 38.992-12.555 81.283-12.555 81.283 42.95zM2044.674 367.278c15.194 15.86 48.909 34.36 48.909 69.387a67.446 67.446 0 01-22.472 52.207c29.728-10.583 52.86-31.728 52.86-63.436 0-59.484-112.997-77.324-122.254-148.03-1.98 56.164 28.416 74.011 42.957 89.872z" class="prefix__cls-1"/>
    <path fill="#132651" stroke-width="7.09334087" d="M1367.738 740.752c-6.604 37.006 29.742 65.422 68.074 72.033 38.326 6.61 109.032-9.25 197.585-50.221 11.236-5.292 22.472-10.584 33.708-15.208 48.894 25.117 106.386 52.873 173.134 64.102 91.192 16.528 110.358-40.311 112.337-49.561 1.327-9.916 7.271-72.033-72.032-85.915a46.052 46.052 0 0 0-8.583-1.319 70.915 70.915 0 0 0-2.767-14.057 80.174 80.174 0 0 1 43.97-13.14c31.054 0 77.317 33.7 85.248 85.907 5.291-19.826-13.208-108.373-83.929-108.373-29.802 0-42.553 16.705-47.884 28.608a56.317 56.317 0 0 0-44.866-32.471c-37.666-6.611-111.678 19.159-165.204 41.63-32.381-29.075-55.512-66.088-48.242-108.379 8.597-49.554 49.561-64.095 78.637-58.81 28.416 4.631 52.867 19.166 46.922 50.887-5.291 32.374-37.672 35.02-45.596 33.7-7.93-1.326-9.916-20.485-18.506-30.401-9.25-9.243-31.714 0-20.478 14.541 11.888 15.201 21.145 24.451 36.998 25.77 15.861.667 50.221-6.604 56.173-41.623 5.944-34.368-23.792-58.159-53.527-63.443-29.076-5.292-79.303 15.86-87.893 66.748-5.945 34.36 9.256 77.977 43.617 115.643-16.52 7.263-30.402 13.208-38.985 17.84-4.632 1.979-9.257 3.965-14.542 6.61-79.963-42.29-144.066-74.019-179.092-79.963-40.312-7.27-96.477 2.639-105.067 52.207-7.271 40.311 23.79 64.762 60.79 76.658zm504.223-49.562a34.923 34.923 0 0 1 8.583.66c54.86 9.903 68.727 48.902 65.421 68.068-3.298 19.826-38.325 54.846-103.087 43.617-50.88-9.257-96.477-28.423-161.239-62.117q21.802-9.927 43.617-17.854a257.657 257.657 0 0 0 56.825 16.528c51.547 9.243 85.915-26.437 89.22-43.617 0-1.979.66-3.306.66-5.285zm-126.879 25.11c45.596-15.86 88.546-26.436 120.268-25.776a4.913 4.913 0 0 1-.667 3.305c-2.639 16.52-30.388 44.277-78.63 35.687a203.076 203.076 0 0 1-40.971-13.215zm77.977-85.907c27.756 4.625 38.318 25.77 41.624 43.617-46.915-3.965-103.747 9.903-151.982 27.097a306.846 306.846 0 0 1-36.353-23.139c60.797-27.756 119.615-52.866 146.71-47.574zm-160.586 54.186a237.695 237.695 0 0 0 32.381 23.132c-15.2 5.944-29.735 11.895-41.63 17.84-8.59-3.958-17.188-9.25-26.43-13.875l-11.236-5.951c15.194-7.264 31.054-13.875 46.915-21.146zm-61.457 27.757q7.938 3.969 15.868 7.93c7.264 3.958 14.534 7.923 22.458 11.896a49.305 49.305 0 0 1-7.924 4.624c-54.186 28.41-139.433 78.637-190.328 69.388-50.88-8.59-71.366-39.652-68.06-59.478.666-1.326.666-2.646 1.326-3.958a154.966 154.966 0 0 0 18.5 3.958c45.602 7.938 107.052 7.27 192.96-28.409 4.624-1.986 9.916-3.965 15.2-5.952zM1312.9 665.413c3.298-18.506 30.395-55.505 96.477-43.617 52.206 9.257 114.323 46.263 167.197 76.665-44.284 18.5-115.65 42.29-198.26 31.055 4.626-12.555 12.556-22.472 20.486-23.131 11.903-1.327 31.055-2.646 29.083-17.18-2.646-14.542-26.437-6.611-34.367-.66-3.965 3.305-15.86 13.208-23.125 40.311l-6.61-1.326c-44.937-7.264-54.187-42.95-50.881-62.117z" class="prefix__cls-1"/>
    <path fill="#132651" stroke-width="7.09334087" d="M2344.256 662.77c-53.533-22.47-127.53-48.241-165.203-41.637-25.495 4.56-38.754 18.206-45.188 33.169-5.09-11.935-17.597-29.302-47.56-29.302-71.373 0-89.213 88.546-83.261 108.372 7.263-52.207 53.519-85.907 84.58-85.907a77.761 77.761 0 0143.887 13.407 71.152 71.152 0 00-2.686 13.787 45.7 45.7 0 00-8.59 1.326c-79.297 13.882-73.352 75.999-72.026 85.915 1.986 9.25 21.145 66.089 112.337 49.562 66.742-11.236 124.248-38.993 173.135-64.11 11.242 4.632 22.471 9.916 33.707 15.215 88.553 40.964 159.267 56.825 197.592 50.214 38.326-6.604 74.672-35.02 68.068-72.026 37.005-11.902 68.06-36.353 60.797-76.665-8.598-49.56-64.763-59.47-105.074-52.2-35.027 5.938-99.13 37.666-179.086 79.957-5.291-2.646-9.923-4.625-14.541-6.611-8.59-4.625-22.465-10.577-38.992-17.84 34.367-37.659 49.561-81.275 43.61-115.643-8.583-50.888-58.811-72.033-87.887-66.741-29.735 5.277-59.47 29.075-53.526 63.436 5.951 35.02 40.311 42.29 56.172 41.63 15.86-1.319 25.11-10.576 37.006-25.77 11.236-14.541-11.236-23.79-20.486-14.541-8.59 9.916-10.569 29.076-18.506 30.395-7.923 1.326-40.312-1.32-45.589-33.693-5.951-31.722 18.5-46.263 46.915-50.888 29.076-5.292 70.047 9.257 78.637 58.81 7.264 42.291-15.86 79.304-48.242 108.38zm-166.523-32.38c27.09-5.285 85.908 19.826 146.705 47.575a305.915 305.915 0 01-36.347 23.145c-48.241-17.194-105.073-31.069-151.989-27.103 3.299-17.847 13.875-38.993 41.631-43.617zm77.977 85.914a202.523 202.523 0 01-40.978 13.208c-48.235 8.597-75.99-19.16-78.63-35.68a4.964 4.964 0 01-.66-3.305c31.708-.66 74.665 9.917 120.268 25.777zm-97.803 87.227c-64.762 11.236-99.79-23.791-103.094-43.61-3.299-19.166 10.576-58.165 65.422-68.075a34.962 34.962 0 018.59-.66c0 1.987.666 3.313.666 5.292 3.306 17.18 37.659 52.86 89.213 43.617a257.657 257.657 0 0056.825-16.527q21.812 7.927 43.617 17.854c-64.762 33.693-110.358 52.852-161.239 62.109zm433.51-181.731c66.074-11.896 93.17 25.11 96.476 43.617 3.306 19.166-5.951 54.852-50.88 62.116l-6.611 1.32c-7.27-27.097-19.16-37.007-23.131-40.312-7.93-5.951-31.715-13.882-34.368.66-1.972 14.534 17.187 15.86 29.083 17.187 7.93.66 15.86 10.576 20.485 23.124-82.609 11.243-153.975-12.548-198.251-31.055 52.866-30.402 114.99-67.408 167.197-76.657zm-191.655 90.539c5.299 1.98 10.583 3.965 15.208 5.944 85.907 35.68 147.364 36.347 192.967 28.41a154.12 154.12 0 0018.5-3.959c.66 1.312.66 2.639 1.32 3.958 3.305 19.826-17.181 50.888-68.062 59.485-50.887 9.242-136.135-40.978-190.321-69.387a49.119 49.119 0 01-7.93-4.632c7.93-3.965 15.193-7.93 22.464-11.889q7.938-3.968 15.854-7.93zm-14.534-6.61l-11.23 5.944c-9.249 4.632-17.846 9.916-26.436 13.874-11.896-5.937-26.43-11.888-41.624-17.84a237.414 237.414 0 0032.374-23.124c15.854 7.263 31.722 13.874 46.916 21.145zM1119.263 814.452c40.503 0 71.154-16.782 89.76-26.628 18.25-10.221 59.853-37.964 86.85-37.964 35.034 0 47.072 17.521 47.072 26.643a15.307 15.307 0 01-13.499 15.698 12.651 12.651 0 01-6.206-.738 9.107 9.107 0 006.206-8.753 9.359 9.359 0 00-9.129-9.491 9.663 9.663 0 00-9.484 9.49c0 16.415 13.506 17.876 20.074 17.876a25.003 25.003 0 0021.16-23.713c0-14.605-21.528-45.617-58.747-45.617-36.857 0-69.33 20.436-106.918 39.78-37.95 19.336-44.88 27.365-76.998 27.365-31.743 0-38.311-21.528-38.311-30.657a15.34 15.34 0 0116.42-15.69 28.282 28.282 0 015.107.737 9.221 9.221 0 00-5.476 8.391 9.668 9.668 0 009.491 9.491 9.348 9.348 0 009.122-9.49c2.923-12.045-13.867-19.706-22.982-19.706-9.13 0-19.344 12.406-19.344 26.267 0 18.606 14.96 46.71 55.832 46.71zm76.63-39.779c85.382-44.872 104.357-37.212 130.269-27.728-36.857-10.214-60.946-1.83-126.985 33.204-66.053 35.403-89.773 31.026-102.541 23.352 5.837 1.46 22.627 11.32 99.257-28.828z" class="prefix__cls-1"/>
    <path fill="#132651" stroke-width="7.09334087" d="M2648.717 776.87a25.017 25.017 0 0021.166 23.72c6.576 0 20.067-1.461 20.067-17.882a9.661 9.661 0 00-9.477-9.49 9.36 9.36 0 00-9.136 9.49 9.116 9.116 0 006.207 8.76 12.633 12.633 0 01-6.207.731 15.301 15.301 0 01-13.484-15.698c0-9.114 12.03-26.635 47.064-26.635 26.997 0 68.6 27.735 86.851 37.956 18.606 9.846 49.256 26.629 89.76 26.629 40.87 0 55.83-28.097 55.83-46.71 0-13.86-10.214-26.266-19.343-26.266-9.115 0-25.897 7.66-22.982 19.705a9.352 9.352 0 009.122 9.49 9.664 9.664 0 009.49-9.49 9.212 9.212 0 00-5.482-8.392 28.442 28.442 0 015.114-.737 15.334 15.334 0 0116.414 15.69c0 9.13-6.561 30.658-38.304 30.658-32.119 0-39.049-8.03-76.998-27.366-37.58-19.337-70.061-39.78-106.918-39.78-37.22 0-58.754 31.019-58.754 45.617zm156.18-2.199c76.63 40.148 93.42 30.289 99.258 28.834-12.768 7.669-36.488 12.045-102.542-23.35-66.039-35.035-90.128-43.426-126.985-33.205 25.913-9.49 44.88-17.151 130.27 27.721zM1984.556 425.585a12.986 12.986 0 00-16.818.575 22.227 22.227 0 00-4.278 15.392 22.025 22.025 0 00-12.264-1.993 21.24 21.24 0 00-20.819 22.805 36.228 36.228 0 0014.257 25.096 31.768 31.768 0 01-3.419-18.244 10.103 10.103 0 0110.264-10.838 14.563 14.563 0 0113.69 11.413c.568 6.838-7.987 21.38-7.128 29.934.85 8.554 5.419 22.528 13.399 21.67 7.98-.575 13.69-10.264 13.69-10.264 10.832 8.27 12.257 39.637 12.257 50.753a146.886 146.886 0 00-33.076-34.502 114.554 114.554 0 00-64.443-22.529c-15.683 0-36.779 14.832-35.353 33.65a32.135 32.135 0 0033.076 29.942c-4.284-1.71-18.542-11.122-19.677-23.663a15.207 15.207 0 0113.4-15.975c11.122 0 23.386 29.941 48.185 29.941 15.974 0 17.974-10.264 17.683-13.115a31.218 31.218 0 00-7.98-19.11c16.819 7.136 35.354 25.097 48.185 43.064v10.555a29.037 29.037 0 00-13.399-4.568c-5.42.283-10.264 4.844-13.69 15.116-3.426 10.54-5.42 15.4-7.98 15.676-2.568.29-12.832-17.11-12.832-17.11s.851 31.084 15.684 29.942c14.825-1.426 16.818-23.664 20.811-23.954a17.279 17.279 0 018.555 2.567s-7.703 2.284-7.703 14.833c0 12.257 13.122 24.23 13.122 24.23s14.25-11.973 14.25-24.23c0-12.549-7.696-14.833-7.696-14.833a17.279 17.279 0 018.555-2.567c4 .29 5.987 22.528 20.812 23.954 14.548 1.141 15.69-29.941 15.69-29.941s-10.27 17.4-12.831 17.109c-2.575-.277-4.569-5.136-7.98-15.676-3.427-10.272-8.271-14.833-13.698-15.116a29.197 29.197 0 00-13.676 4.568v-10.555c13.116-17.967 31.367-35.928 48.462-43.064a33.265 33.265 0 00-8.257 19.11c0 2.851 1.994 13.115 17.67 13.115 25.096 0 37.36-29.94 48.483-29.94a15.409 15.409 0 0113.392 15.974c-1.142 12.54-15.385 21.953-19.96 23.663a31.979 31.979 0 0033.076-29.941c1.71-18.819-19.393-33.65-35.07-33.65a113.95 113.95 0 00-64.72 22.528 154.133 154.133 0 00-33.076 34.502c0-18.244.851-37.928 12.541-50.753 0 0 5.71 9.69 13.69 10.264 7.697.858 12.541-13.116 13.393-21.67.85-8.555-7.697-23.096-7.13-29.934a14.582 14.582 0 0113.698-11.413 10.102 10.102 0 0110.257 10.838 31.77 31.77 0 01-3.412 18.244 36.23 36.23 0 0014.258-25.096 21.647 21.647 0 00-21.103-22.805 21.027 21.027 0 00-11.98 1.993 21.458 21.458 0 00-4.562-15.392 12.607 12.607 0 00-16.534-.575c-1.71-5.136-4.568-17.11-15.967-17.11-11.98.001-14.265 11.974-15.974 17.11zm35.927 30.8c0 24.804-17.96 50.752-19.662 78.7-1.15-27.373-20.252-55.03-20.252-78.7 0-14.258 5.412-30.516 19.102-30.516 16.826 0 20.813 16.258 20.813 30.516zM3088.22 2462.152H912.572a8.097 8.097 0 100 16.194H3088.22a8.097 8.097 0 000-16.194zM2982.855 2487.342H1017.936a5.398 5.398 0 100 10.796h1964.92a5.398 5.398 0 000-10.796zM2070.44 2836.637a66.814 66.814 0 0123.131 52.207c0 35.027-33.7 53.526-48.901 69.387-15.201 15.86-44.936 33.707-43.617 89.873 9.257-70.707 122.254-88.547 122.254-148.031 0-31.707-22.465-52.853-52.867-63.436zM1956.117 2958.231c-15.194-15.86-48.91-34.36-48.91-69.387a67.448 67.448 0 0122.473-52.207c-29.729 10.583-52.86 31.729-52.86 63.436 0 59.485 112.997 77.324 122.254 148.03 1.979-56.164-28.416-74.011-42.957-89.872zM2135.202 2722.32c-25.77-9.256-37.006-8.596-55.505-19.825 5.284 7.93 15.194 16.52 42.29 32.38a62.969 62.969 0 0131.722 52.867c0 55.506-42.958 55.506-81.283 42.95 46.263 33.042 112.997 23.132 112.997-38.984a73.874 73.874 0 00-50.22-69.387zM1969.991 2576.929a16.678 16.678 0 0017.194 17.187 16.113 16.113 0 0015.194-9.257 16.107 16.107 0 0015.2 9.257 16.87 16.87 0 001.313-33.708 14.391 14.391 0 00.668-5.277 17.07 17.07 0 00-17.18-17.194 17.504 17.504 0 00-17.188 17.194c0 1.972.667 3.298.667 4.618a17.792 17.792 0 00-15.868 17.18zM1847.078 2787.742a61.42 61.42 0 0131.728-52.866c27.09-15.86 37.006-24.45 41.624-32.38-18.5 11.227-29.076 10.568-54.846 19.825a73.033 73.033 0 00-50.22 69.387c0 62.116 66.748 72.026 112.996 38.985-38.992 12.555-81.282 12.555-81.282-42.95z" class="prefix__cls-1"/>
    <path fill="#132651" stroke-width="7.09334087" d="M2633.053 2584.758c6.604-37.006-29.742-65.422-68.074-72.033-38.326-6.611-109.032 9.25-197.585 50.22-11.236 5.292-22.472 10.584-33.708 15.209-48.894-25.118-106.386-52.874-173.134-64.103-91.192-16.527-110.358 40.312-112.337 49.561-1.327 9.917-7.271 72.033 72.032 85.915a46.02 46.02 0 0 0 8.583 1.32 70.948 70.948 0 0 0 2.767 14.056 80.174 80.174 0 0 1-43.97 13.141c-31.054 0-77.317-33.7-85.247-85.907-5.292 19.825 13.208 108.372 83.928 108.372 29.801 0 42.553-16.704 47.884-28.607a56.301 56.301 0 0 0 44.867 32.47c37.665 6.611 111.677-19.159 165.203-41.63 32.382 29.075 55.513 66.081 48.242 108.379-8.597 49.554-49.56 64.095-78.637 58.81-28.415-4.632-52.866-19.166-46.922-50.887 5.292-32.374 37.673-35.02 45.596-33.7 7.93 1.326 9.917 20.485 18.507 30.401 9.25 9.243 31.714 0 20.478-14.54-11.888-15.202-21.145-24.452-36.999-25.771-15.86-.667-50.22 6.604-56.172 41.624-5.944 34.367 23.791 58.158 53.526 63.443 29.076 5.291 79.304-15.861 87.894-66.749 5.944-34.36-9.257-77.977-43.617-115.643 16.52-7.263 30.402-13.207 38.985-17.84 4.632-1.978 9.257-3.964 14.541-6.61 79.964 42.29 144.066 74.019 179.093 79.963 40.311 7.27 96.477-2.639 105.067-52.207 7.27-40.311-23.792-64.762-60.79-76.658zm-504.223 49.56a34.9 34.9 0 0 1-8.583-.66c-54.86-9.901-68.727-48.9-65.421-68.066 3.298-19.826 38.325-54.847 103.087-43.617 50.88 9.256 96.477 28.423 161.239 62.116q-21.801 9.927-43.617 17.854a257.673 257.673 0 0 0-56.825-16.528c-51.547-9.242-85.914 26.437-89.22 43.617 0 1.98-.66 3.306-.66 5.285zm126.879-25.11c-45.596 15.86-88.546 26.437-120.268 25.777a4.912 4.912 0 0 1 .667-3.305c2.639-16.52 30.388-44.277 78.63-35.687a203.04 203.04 0 0 1 40.97 13.215zm-77.977 85.908c-27.756-4.625-38.318-25.77-41.624-43.617 46.915 3.965 103.747-9.903 151.982-27.097a306.81 306.81 0 0 1 36.353 23.139c-60.797 27.756-119.615 52.866-146.711 47.575zm160.586-54.186a237.695 237.695 0 0 0-32.381-23.132c15.201-5.944 29.735-11.895 41.63-17.84 8.59 3.959 17.188 9.25 26.43 13.875l11.236 5.951c-15.194 7.264-31.054 13.875-46.915 21.146zm61.457-27.757l-15.868-7.93c-7.264-3.958-14.534-7.923-22.458-11.896a49.305 49.305 0 0 1 7.924-4.624c54.186-28.41 139.433-78.637 190.328-69.387 50.88 8.59 71.366 39.651 68.06 59.477-.666 1.327-.666 2.646-1.326 3.958a154.844 154.844 0 0 0-18.5-3.958c-45.602-7.937-107.052-7.27-192.96 28.41-4.624 1.985-9.916 3.964-15.2 5.95zm288.117 46.923c-3.298 18.506-30.395 55.505-96.476 43.617-52.207-9.257-114.323-46.263-167.198-76.665 44.284-18.5 115.65-42.29 198.26-31.055-4.626 12.556-12.556 22.472-20.486 23.132-11.903 1.326-31.055 2.646-29.083 17.18 2.646 14.542 26.437 6.61 34.367.66 3.965-3.306 15.861-13.208 23.125-40.312l6.61 1.327c44.936 7.263 54.186 42.95 50.88 62.116z" class="prefix__cls-1"/>
    <path fill="#132651" stroke-width="7.09334087" d="M1656.535 2662.738c53.533 22.472 127.53 48.242 165.203 41.638 25.495-4.56 38.754-18.207 45.189-33.17 5.09 11.936 17.596 29.303 47.559 29.303 71.373 0 89.213-88.546 83.261-108.372-7.263 52.207-53.519 85.907-84.58 85.907a77.763 77.763 0 01-43.887-13.408 71.159 71.159 0 002.686-13.786 45.668 45.668 0 008.59-1.327c79.297-13.881 73.352-75.998 72.026-85.914-1.986-9.25-21.145-66.089-112.337-49.561-66.741 11.235-124.247 38.992-173.134 64.11-11.243-4.633-22.472-9.917-33.708-15.216-88.553-40.964-159.267-56.825-197.592-50.214-38.325 6.604-74.672 35.02-68.068 72.026-37.006 11.903-68.06 36.353-60.797 76.665 8.597 49.56 64.762 59.47 105.074 52.2 35.027-5.937 99.13-37.666 179.085-79.956 5.292 2.645 9.924 4.624 14.542 6.61 8.59 4.625 22.464 10.577 38.992 17.84-34.367 37.659-49.561 81.276-43.61 115.643 8.583 50.888 58.81 72.033 87.886 66.741 29.736-5.277 59.471-29.075 53.527-63.435-5.951-35.02-40.312-42.291-56.172-41.631-15.861 1.319-25.11 10.576-37.006 25.77-11.236 14.541 11.236 23.79 20.485 14.541 8.59-9.916 10.57-29.075 18.507-30.395 7.923-1.326 40.311 1.32 45.589 33.694 5.951 31.72-18.5 46.262-46.916 50.887-29.075 5.292-70.046-9.257-78.637-58.81-7.263-42.291 15.861-79.304 48.243-108.38zm166.523 32.381c-27.09 5.285-85.908-19.826-146.705-47.575a305.915 305.915 0 0136.347-23.146c48.241 17.195 105.073 31.07 151.989 27.104-3.3 17.847-13.875 38.992-41.632 43.617zm-77.977-85.915a202.56 202.56 0 0140.978-13.207c48.235-8.597 75.99 19.159 78.63 35.68a4.964 4.964 0 01.66 3.305c-31.708.66-74.665-9.917-120.269-25.777zm97.803-87.226c64.762-11.236 99.79 23.79 103.094 43.61 3.299 19.166-10.576 58.165-65.422 68.074a34.962 34.962 0 01-8.59.66c0-1.986-.666-3.313-.666-5.292-3.306-17.18-37.659-52.86-89.213-43.617a257.657 257.657 0 00-56.825 16.528q-21.812-7.927-43.617-17.854c64.762-33.693 110.358-52.852 161.238-62.11zm-433.51 181.731c-66.074 11.896-93.17-25.11-96.476-43.617-3.306-19.166 5.951-54.853 50.88-62.116l6.611-1.32c7.27 27.097 19.16 37.006 23.132 40.312 7.93 5.951 31.714 13.881 34.367-.66 1.972-14.534-17.187-15.86-29.083-17.187-7.93-.653-15.86-10.576-20.485-23.124 82.609-11.243 153.975 12.548 198.251 31.055-52.867 30.401-114.99 67.408-167.197 76.657zm191.655-90.54c-5.299-1.978-10.583-3.965-15.208-5.944-85.907-35.68-147.364-36.346-192.967-28.408a154.11 154.11 0 00-18.5 3.958c-.66-1.313-.66-2.64-1.319-3.958-3.306-19.826 17.18-50.888 68.06-59.485 50.888-9.243 136.136 40.978 190.322 69.387a49.151 49.151 0 017.93 4.632c-7.93 3.965-15.194 7.93-22.464 11.888l-15.854 7.93zm14.534 6.612l11.229-5.945c9.25-4.632 17.847-9.916 26.437-13.874 11.896 5.937 26.43 11.888 41.624 17.84a237.414 237.414 0 00-32.374 23.124c-15.854-7.264-31.722-13.874-46.916-21.145zM2881.527 2511.056c-40.503 0-71.153 16.783-89.759 26.629-18.251 10.221-59.853 37.964-86.85 37.964-35.035 0-47.072-17.52-47.072-26.643a15.307 15.307 0 0113.499-15.697 12.652 12.652 0 016.206.737 9.107 9.107 0 00-6.206 8.753 9.358 9.358 0 009.129 9.49 9.662 9.662 0 009.483-9.49c0-16.414-13.505-17.875-20.074-17.875a25.003 25.003 0 00-21.16 23.713c0 14.605 21.53 45.617 58.748 45.617 36.857 0 69.33-20.436 106.918-39.78 37.95-19.336 44.88-27.365 76.998-27.365 31.743 0 38.311 21.528 38.311 30.657a15.34 15.34 0 01-16.42 15.69 28.288 28.288 0 01-5.108-.737 9.22 9.22 0 005.476-8.392 9.669 9.669 0 00-9.49-9.49 9.348 9.348 0 00-9.123 9.49c-2.922 12.045 13.867 19.705 22.983 19.705 9.129 0 19.343-12.406 19.343-26.266 0-18.606-14.96-46.71-55.832-46.71zm-76.63 39.78c-85.382 44.872-104.356 37.211-130.269 27.728 36.857 10.214 60.946 1.83 126.985-33.204 66.054-35.403 89.774-31.027 102.542-23.352-5.838-1.46-22.628-11.32-99.257 28.828z" class="prefix__cls-1"/>
    <path fill="#132651" stroke-width="7.09334087" d="M1352.074 2548.639a25.017 25.017 0 00-21.166-23.72c-6.576 0-20.067 1.46-20.067 17.882a9.661 9.661 0 009.476 9.49 9.36 9.36 0 009.136-9.49 9.116 9.116 0 00-6.206-8.76 12.633 12.633 0 016.206-.73 15.301 15.301 0 0113.485 15.697c0 9.115-12.03 26.635-47.064 26.635-26.998 0-68.6-27.735-86.851-37.956-18.606-9.853-49.256-26.629-89.76-26.629-40.871 0-55.831 28.097-55.831 46.71 0 13.86 10.214 26.267 19.343 26.267 9.115 0 25.898-7.661 22.983-19.706a9.352 9.352 0 00-9.122-9.49 9.664 9.664 0 00-9.491 9.49 9.211 9.211 0 005.483 8.392 28.438 28.438 0 01-5.114.737 15.335 15.335 0 01-16.414-15.69c0-9.13 6.561-30.657 38.304-30.657 32.119 0 39.048 8.03 76.998 27.366 37.58 19.336 70.061 39.78 106.918 39.78 37.219 0 58.754-31.02 58.754-45.618zm-156.181 2.199c-76.63-40.149-93.42-30.289-99.257-28.835 12.768-7.668 36.488-12.044 102.541 23.352 66.04 35.034 90.129 43.425 126.985 33.204-25.912 9.49-44.88 17.151-130.269-27.721zM2016.235 2899.924a12.985 12.985 0 0016.818-.575 22.227 22.227 0 004.277-15.392 22.026 22.026 0 0012.264 1.993 21.24 21.24 0 0020.82-22.805 36.23 36.23 0 00-14.258-25.097 31.767 31.767 0 013.42 18.245 10.102 10.102 0 01-10.265 10.838 14.562 14.562 0 01-13.69-11.413c-.568-6.838 7.987-21.38 7.129-29.934-.852-8.555-5.42-22.528-13.4-21.67-7.98.574-13.69 10.264-13.69 10.264-10.832-8.27-12.257-39.638-12.257-50.753a146.895 146.895 0 0033.076 34.502 114.554 114.554 0 0064.443 22.529c15.683 0 36.779-14.833 35.353-33.651a32.135 32.135 0 00-33.076-29.94c4.284 1.709 18.542 11.121 19.677 23.662a15.206 15.206 0 01-13.4 15.975c-11.122 0-23.386-29.94-48.185-29.94-15.974 0-17.974 10.263-17.683 13.115a31.218 31.218 0 007.98 19.11c-16.819-7.137-35.353-25.097-48.185-43.065v-10.554a29.041 29.041 0 0013.399 4.568c5.42-.284 10.264-4.845 13.69-15.116 3.426-10.54 5.42-15.4 7.98-15.677 2.568-.29 12.832 17.11 12.832 17.11s-.851-31.083-15.684-29.941c-14.825 1.425-16.818 23.663-20.811 23.954a17.279 17.279 0 01-8.555-2.568s7.703-2.284 7.703-14.832c0-12.257-13.122-24.231-13.122-24.231s-14.25 11.974-14.25 24.23c0 12.549 7.695 14.833 7.695 14.833a17.279 17.279 0 01-8.554 2.568c-4-.291-5.987-22.529-20.812-23.954-14.548-1.142-15.69 29.94-15.69 29.94s10.27-17.4 12.832-17.109c2.574.277 4.568 5.136 7.98 15.677 3.426 10.27 8.27 14.832 13.697 15.116a29.201 29.201 0 0013.676-4.568v10.554c-13.116 17.968-31.367 35.928-48.462 43.064a33.265 33.265 0 008.257-19.11c0-2.85-1.994-13.115-17.67-13.115-25.096 0-37.36 29.94-48.483 29.94a15.408 15.408 0 01-13.392-15.974c1.142-12.54 15.385-21.953 19.96-23.663a31.979 31.979 0 00-33.076 29.94c-1.71 18.82 19.394 33.652 35.07 33.652a113.949 113.949 0 0064.72-22.529 154.143 154.143 0 0033.076-34.502c0 18.244-.852 37.928-12.541 50.753 0 0-5.71-9.69-13.69-10.264-7.697-.858-12.542 13.115-13.393 21.67-.85 8.555 7.697 23.096 7.13 29.934a14.581 14.581 0 01-13.698 11.413 10.101 10.101 0 01-10.257-10.839 31.77 31.77 0 013.412-18.243 36.23 36.23 0 00-14.258 25.096 21.647 21.647 0 0021.103 22.805 21.03 21.03 0 0011.98-1.993 21.457 21.457 0 004.562 15.392 12.607 12.607 0 0016.534.575c1.71 5.135 4.568 17.109 15.967 17.109 11.981 0 14.265-11.974 15.975-17.11zm-35.928-30.793c0-24.812 17.96-50.759 19.663-78.707 1.149 27.373 20.251 55.03 20.251 78.708 0 14.25-5.412 30.508-19.102 30.508-16.825 0-20.812-16.258-20.812-30.508z" class="prefix__cls-1"/>
    <g fill="#132651" stroke-width="26.35001945" aria-label="КАПИТАЛ" font-family="Marta" font-size="632.40045166px" letter-spacing="47.43003464px">
        <path d="M405.086 1169.152v347.82l55.019 20.237-4.427 27.193H287.46l-4.427-27.193 55.019-20.237v-347.82l-55.02-21.502 4.428-25.928h168.218l4.427 26.56zm150.511 395.25l4.427-26.56-128.377-191.618v-26.561l147.35-150.511-55.02-21.502 4.427-25.928h139.76l4.428 25.928-20.237 8.221q-34.782 13.913-60.71 39.841l-126.48 129.01 46.164 20.237 115.097 171.38 55.02 21.502-5.06 26.561zM949.356 1121.722l55.019-10.751 142.29 406 54.386 20.87-5.06 26.561H1023.98l-4.427-26.56 54.387-20.87-35.415-101.816H872.835l-36.047 101.816 65.138 20.87-4.427 26.56H753.31l-4.426-26.56 54.386-20.87zm15.81 48.695l-82.212 218.178h146.084l-63.872-185.926zM1604.068 1516.972v-368.69h-203v368.69l53.753 20.87-4.426 26.56h-165.69l-5.058-26.56 54.386-20.87v-347.82l-55.019-21.502 4.427-25.928h437.621l5.06 25.928-55.02 21.502v347.82l53.754 20.87-4.426 26.56h-165.69l-5.059-26.56zM1946.898 1482.822v34.15l54.387 20.87-5.06 26.56h-165.688l-4.427-26.56 53.754-20.87v-347.82l-55.019-21.502 5.06-25.928h167.585l5.06 25.928-55.652 21.502v255.49l225.767-227.665v-27.825l-55.019-21.502 5.06-25.928h167.586l4.427 25.928-55.02 21.502v347.82l54.387 20.87-4.427 26.56h-166.321l-4.427-26.56 53.754-20.87v-261.814zM2392.879 1234.289v-112.567h361.733v112.567l-26.56 4.427-34.783-90.433h-86.006v368.689l55.018 20.87-4.426 26.56h-168.219l-4.427-26.56 55.02-20.87v-368.69h-86.007l-34.782 90.434zM3018.985 1121.722l55.019-10.751 142.29 406 54.386 20.87-5.059 26.561h-172.013l-4.427-26.56 54.387-20.87-35.415-101.816h-165.689l-36.046 101.816 65.137 20.87-4.427 26.56h-144.187l-4.427-26.56 54.386-20.87zm15.81 48.695l-82.212 218.178h146.084l-63.872-185.926zM3493.463 1269.071q0 77.785-17.075 161.894-17.074 84.11-48.694 133.437h-93.596l-4.426-26.56q130.274-58.182 130.274-292.17v-76.52l-55.019-21.502 4.427-25.928h306.082l5.059 25.928-55.019 21.502v347.82l53.754 20.87-4.427 26.56h-166.32l-4.428-26.56 54.387-20.87V1147.65h-104.979z"/>
    </g>
    <g fill="#132651" stroke-width="26.21047783" aria-label="ФИНАНС" font-family="Marta" font-size="629.05145264px" letter-spacing="47.1788559px">
        <path d="M587.07 1749.61h167.328l4.403 25.791-54.727 21.388v28.936q21.387-5.661 48.437-5.661 50.953 0 88.067 23.904 37.743 23.275 54.727 59.13 16.985 35.227 16.985 77.374 0 66.68-40.26 113.23-39.63 46.549-119.52 46.549-25.161 0-48.436-5.662v18.872l53.469 20.759-4.403 26.42H588.328l-5.032-26.42 54.098-20.759v-18.872q-23.275 5.662-49.066 5.662-79.26 0-119.52-46.55-40.259-46.55-40.259-113.23 0-65.42 42.147-112.6 42.146-47.807 117.632-47.807 27.05 0 49.066 5.661v-28.936l-54.727-21.388zm117.004 100.02v261.055q18.871 3.146 31.452 3.146 30.824 0 53.47-11.323 23.275-11.952 35.226-31.453 12.582-20.13 18.243-42.775 5.661-23.275 5.661-50.324 0-131.472-112.6-131.472-12.58 0-31.452 3.145zm-66.68 261.055V1849.63q-18.871-3.145-32.081-3.145-111.972 0-111.972 131.472 0 57.872 26.42 96.874 26.42 39 86.18 39 12.582 0 31.453-3.144zM1141.205 2119.492v33.969l54.099 20.759-5.033 26.42H1025.46l-4.403-26.42 53.469-20.759v-345.978l-54.727-21.388 5.032-25.791h166.699l5.032 25.791-55.357 21.388v254.136l224.572-226.458v-27.678l-54.728-21.388 5.033-25.791h166.698l4.404 25.791-54.728 21.388v345.978l54.099 20.759-4.404 26.42h-165.44l-4.404-26.42 53.47-20.759v-260.427zM2039.629 1786.724l-54.728 20.759v345.978l53.47 20.759-4.404 26.42h-166.07l-4.403-26.42 54.728-20.759v-166.699h-211.99v166.699l53.469 20.759-4.404 26.42h-164.811l-5.033-26.42 54.099-20.759v-345.978l-54.728-20.759 4.404-26.42h167.327l4.404 26.42-54.728 20.759v152.86h211.99v-152.86l-54.727-20.759 4.403-26.42h167.328zM2320.648 1760.304l54.727-10.694 141.537 403.851 54.098 20.759-5.033 26.42h-171.101l-4.404-26.42 54.099-20.759-35.227-101.277h-164.812l-35.856 101.277 64.793 20.759-4.404 26.42h-143.424l-4.403-26.42 54.099-20.759zm15.726 48.437l-81.777 217.023h145.31l-63.533-184.941zM3103.364 1786.724l-54.727 20.759v345.978l53.47 20.759-4.404 26.42h-166.07l-4.403-26.42 54.727-20.759v-166.699h-211.99v166.699l53.47 20.759-4.404 26.42h-164.811l-5.033-26.42 54.099-20.759v-345.978l-54.728-20.759 4.404-26.42h167.327l4.404 26.42-54.728 20.759v152.86h211.99v-152.86l-54.727-20.759 4.403-26.42h167.328zM3437.224 2180.51q42.146 0 79.89-11.952l32.08-88.696 26.42 4.403v89.955q-23.274 16.984-61.646 27.049-37.743 10.065-76.744 10.065-59.131 0-103.794-19.5-44.663-19.501-70.454-52.841-25.162-33.34-37.743-72.97-11.952-39.63-11.952-85.551 0-44.663 13.84-84.922 13.839-40.888 40.259-73.6 26.42-33.339 70.453-52.84 44.034-19.5 99.39-19.5 74.229 0 138.392 37.114v85.551l-26.42 4.403-30.195-84.292q-41.517-11.952-81.776-11.952-76.116 0-113.23 48.437-36.485 47.807-36.485 148.456 0 203.183 149.715 203.183z"/>
    </g>
</svg>
