<?xml version="1.0" encoding="utf-8"?>
<!-- Generator: Adobe Illustrator 24.0.1, SVG Export Plug-In . SVG Version: 6.00 Build 0)  -->
<svg version="1.1" id="Слой_1" xmlns="http://www.w3.org/2000/svg" xmlns:xlink="http://www.w3.org/1999/xlink" x="0px" y="0px"
	 viewBox="0 0 26 26" style="enable-background:new 0 0 26 26;" xml:space="preserve">
<g>
	<g>
		<path d="M23.7,3H23V2.3C23,1,21.9,0,20.7,0s-2.3,1-2.3,2.3V3h-3V2.3c0-1.3-1-2.3-2.3-2.3s-2.3,1-2.3,2.3V3H7.7V2.3
			C7.7,1,6.7,0,5.4,0S3.1,1,3.1,2.3V3H2.4c-1.3,0-2.3,1-2.3,2.3c0,0.1,0,18,0,18.3c0,1.3,1,2.3,2.3,2.3h21.3c1.3,0,2.3-1,2.3-2.3
			c0-0.1,0-18.1,0-18.3C26,4.1,25,3,23.7,3z M19.9,2.3c0-0.4,0.3-0.8,0.8-0.8s0.8,0.3,0.8,0.8v3c0,0.4-0.3,0.8-0.8,0.8
			s-0.8-0.3-0.8-0.8V2.3z M12.3,2.3c0-0.4,0.3-0.8,0.8-0.8c0.4,0,0.8,0.3,0.8,0.8v3c0,0.4-0.3,0.8-0.8,0.8c-0.4,0-0.8-0.3-0.8-0.8
			V2.3z M4.7,2.3c0-0.4,0.3-0.8,0.8-0.8s0.8,0.3,0.8,0.8v3c0,0.4-0.3,0.8-0.8,0.8S4.7,5.7,4.7,5.3V2.3z M24.5,23.6
			c0,0.4-0.3,0.8-0.8,0.8H2.4c-0.4,0-0.8-0.3-0.8-0.8V10.7h22.9V23.6z M24.5,9.2H1.6V5.3c0-0.4,0.3-0.8,0.8-0.8h0.8v0.8
			c0,1.3,1,2.3,2.3,2.3s2.3-1,2.3-2.3V4.6h3.1v0.8c0,1.3,1,2.3,2.3,2.3s2.3-1,2.3-2.3V4.6h3v0.8c0,1.3,1,2.3,2.3,2.3s2.3-1,2.3-2.3
			V4.6h0.8c0.4,0,0.8,0.3,0.8,0.8V9.2z"/>
	</g>
</g>
<g>
	<g>
		<path d="M22.2,12.2H3.9c-0.4,0-0.8,0.3-0.8,0.8v9.1c0,0.4,0.3,0.8,0.8,0.8h18.3c0.4,0,0.8-0.3,0.8-0.8V13
			C23,12.6,22.6,12.2,22.2,12.2z M7.7,21.3h-3v-3h3V21.3z M7.7,16.8h-3v-3h3V16.8z M12.3,21.3H9.2v-3h3.1V21.3z M12.3,16.8H9.2v-3
			h3.1V16.8z M16.9,21.3h-3v-3h3V21.3z M16.9,16.8h-3v-3h3V16.8z M21.4,21.3h-3v-3h3V21.3z M21.4,16.8h-3v-3h3V16.8z"/>
	</g>
</g>
</svg>
