<?xml version="1.0" encoding="utf-8"?>
<!-- Generator: Adobe Illustrator 24.0.1, SVG Export Plug-In . SVG Version: 6.00 Build 0)  -->
<svg version="1.1" id="Слой_1" xmlns="http://www.w3.org/2000/svg" xmlns:xlink="http://www.w3.org/1999/xlink" x="0px" y="0px"
	 viewBox="0 0 26 26" style="enable-background:new 0 0 26 26;" xml:space="preserve">
<style type="text/css">
	.st0{fill:#FFFFFF;}
</style>
<g>
	<g>
		<path class="st0" d="M23.9,25C11.3,25,1,14.7,1,2.1C1,1.4,1.6,1,2.1,1h4.8C7.4,1,8,1.4,8,2.1C8,3.8,8.2,5.3,8.6,7l0,0.1l0,0.1
			c0.1,0.3,0,0.7-0.3,1L8.3,8.2l-2.5,3.4l0.3,0.6c1.9,3.6,4.1,5.8,7.7,7.7l0.6,0.3l3.4-2.6c0.2-0.1,0.5-0.3,0.9-0.3
			c0.1,0,0.2,0,0.3,0c1.3,0.5,3,0.7,4.9,0.7c0.6,0,1.1,0.4,1.1,1v4.8C25,24.6,24.4,25,23.9,25z"/>
		<path d="M6.9,2C6.9,2,7,2,7,2.1c0,1.7,0.2,3.4,0.7,5.2l0,0.2l0,0c0,0,0,0,0,0L7.6,7.6L7.5,7.7l-2.1,2.8l-0.8,1l0.6,1.1
			c2,3.8,4.4,6.1,8.1,8.1l1.1,0.6l1-0.8l2.9-2.2c0,0,0.2-0.1,0.3-0.1c0,0,0,0,0,0c1.5,0.5,3.2,0.8,5.2,0.8c0,0,0.1,0,0.1,0
			c0,0,0,0,0,0v4.8c0,0.1-0.1,0.1-0.1,0.1C11.8,24,2,14.2,2,2.1C2,2,2.1,2,2.1,2H6.9 M6.9,0H2.1C1,0,0,0.9,0,2.1
			C0,15.3,10.7,26,23.9,26c1.1,0,2.1-0.9,2.1-2.1v-4.8c0-1.1-0.9-2-2.1-2c-1.6,0-3.2-0.2-4.6-0.7c-0.2-0.1-0.4-0.1-0.6-0.1
			c-0.6,0-1.1,0.2-1.5,0.5L14.3,19c-3.4-1.8-5.5-3.9-7.3-7.3l2.1-2.8c0.6-0.6,0.8-1.4,0.5-2.1C9.2,5.2,9,3.7,9,2.1C9,0.9,8,0,6.9,0
			L6.9,0z"/>
	</g>
</g>
</svg>
