<?xml version="1.0" encoding="utf-8"?>
<!-- Generator: Adobe Illustrator 24.0.1, SVG Export Plug-In . SVG Version: 6.00 Build 0)  -->
<svg version="1.1" id="Слой_1" xmlns="http://www.w3.org/2000/svg" xmlns:xlink="http://www.w3.org/1999/xlink" x="0px" y="0px"
	 viewBox="0 0 26 26" style="enable-background:new 0 0 26 26;" xml:space="preserve">
<g>
	<path d="M23.9,17.1c-1.6,0-3.2-0.2-4.6-0.7c-0.7-0.2-1.6,0-2.1,0.4L14.3,19c-3.4-1.8-5.5-3.9-7.3-7.3l2.1-2.8
		c0.6-0.6,0.8-1.4,0.5-2.1C9.2,5.2,9,3.7,9,2.1C9,0.9,8,0,6.9,0H2.1C1,0,0,0.9,0,2.1C0,15.3,10.7,26,23.9,26c1.1,0,2.1-0.9,2.1-2.1
		v-4.8C26,18,25.1,17.1,23.9,17.1z"/>
</g>
</svg>
