<?xml version="1.0" encoding="utf-8"?>
<!-- Generator: Adobe Illustrator 24.0.1, SVG Export Plug-In . SVG Version: 6.00 Build 0)  -->
<svg version="1.1" id="Слой_1" xmlns="http://www.w3.org/2000/svg" xmlns:xlink="http://www.w3.org/1999/xlink" x="0px" y="0px"
	 viewBox="0 0 26 26" style="enable-background:new 0 0 26 26;" xml:space="preserve">
<g>
	<path d="M19.6,15.4c-1,0-1.9-0.1-2.8-0.4c-0.4-0.1-1,0-1.2,0.3l-1.8,1.3c-2-1.1-3.3-2.3-4.4-4.4l1.3-1.7c0.3-0.3,0.5-0.8,0.3-1.3
		c-0.3-0.9-0.4-1.8-0.4-2.8c0-0.7-0.6-1.3-1.3-1.3H6.4c-0.7,0-1.3,0.6-1.3,1.3c0,7.9,6.5,14.4,14.4,14.4c0.7,0,1.3-0.6,1.3-1.3v-2.9
		C20.8,16,20.3,15.4,19.6,15.4z"/>
</g>
</svg>
