<?xml version="1.0" encoding="iso-8859-1"?>
<!-- Generator: Adobe Illustrator 19.0.0, SVG Export Plug-In . SVG Version: 6.00 Build 0)  -->
<svg version="1.1" id="Capa_1" xmlns="http://www.w3.org/2000/svg" xmlns:xlink="http://www.w3.org/1999/xlink" x="0px" y="0px"
	 viewBox="0 0 480.039 480.039" style="enable-background:new 0 0 480.039 480.039;" xml:space="preserve">
<g>
	<g>
		<rect x="200.692" y="348.428" transform="matrix(0.7071 -0.7071 0.7071 0.7071 -190.5404 251.8102)" width="16" height="14.96"/>
	</g>
</g>
<g>
	<g>
		<rect x="221.76" y="369.548" transform="matrix(0.7071 -0.7071 0.7071 0.7071 -199.3034 272.8925)" width="16" height="14.96"/>
	</g>
</g>
<g>
	<g>
		<rect x="179.543" y="327.308" transform="matrix(0.7071 -0.7071 0.7071 0.7071 -181.8005 230.6702)" width="16" height="14.96"/>
	</g>
</g>
<g>
	<g>
		<rect x="116.178" y="263.948" transform="matrix(0.7071 -0.7071 0.7071 0.7071 -155.5573 167.3066)" width="16" height="14.96"/>
	</g>
</g>
<g>
	<g>
		<rect x="95.03" y="242.828" transform="matrix(0.7071 -0.7071 0.7071 0.7071 -146.8177 146.1673)" width="16" height="14.96"/>
	</g>
</g>
<g>
	<g>
		<rect x="137.327" y="285.068" transform="matrix(0.7071 -0.7071 0.7071 0.7071 -164.2972 188.4467)" width="16" height="14.96"/>
	</g>
</g>
<g>
	<g>
		<rect x="158.395" y="306.188" transform="matrix(0.7071 -0.7071 0.7071 0.7071 -173.0606 209.5301)" width="16" height="14.96"/>
	</g>
</g>
<g>
	<g>
		<rect x="254.527" y="121.488" transform="matrix(0.7071 -0.7071 0.7071 0.7071 -76.8949 249.3351)" width="16" height="192.001"/>
	</g>
</g>
<g>
	<g>
		<rect x="231.967" y="144.145" transform="matrix(0.7071 -0.7071 0.7071 0.7071 -99.5242 240.0191)" width="16" height="192.001"/>
	</g>
</g>
<g>
	<g>
		
			<rect x="209.327" y="166.723" transform="matrix(0.7071 -0.7071 0.7071 0.7071 -122.1204 230.6241)" width="16" height="192.001"/>
	</g>
</g>
<g>
	<g>
		<path d="M477.686,2.353c-3.137-3.137-8.223-3.137-11.36,0l-43.2,43.28l-178,11.12c-1.959,0.109-3.81,0.935-5.2,2.32l-237.6,237.6
			c-3.102,3.12-3.102,8.16,0,11.28l169.76,169.76c3.12,3.102,8.16,3.102,11.28,0l237.6-237.68c1.385-1.39,2.211-3.241,2.32-5.2
			l11.12-177.92l43.28-43.2C480.823,10.576,480.823,5.49,477.686,2.353z M407.526,230.913l-229.84,229.84l-158.4-158.4
			l229.84-229.84l156.88-9.76l-40.88,40.8c-20.843-15.803-50.55-11.717-66.352,9.126c-15.803,20.843-11.717,50.55,9.126,66.352
			c20.843,15.803,50.55,11.716,66.352-9.126c12.151-16.027,12.854-37.981,1.754-54.752l41.12-41.12L407.526,230.913z
			 M330.28,149.666c0.015,0.016,0.031,0.031,0.046,0.046c3.111,3.137,8.177,3.158,11.314,0.046c0.016-0.015,0.031-0.031,0.046-0.046
			l22.72-22.72c6.269,12.297,3.947,27.228-5.76,37.04c-12.46,12.534-32.721,12.594-45.255,0.135
			c-12.534-12.46-12.594-32.721-0.135-45.255c6.02-6.056,14.21-9.454,22.749-9.44c6.36-0.033,12.58,1.864,17.84,5.44l-23.52,23.44
			C327.189,141.464,327.169,146.529,330.28,149.666z"/>
	</g>
</g>
<g>
</g>
<g>
</g>
<g>
</g>
<g>
</g>
<g>
</g>
<g>
</g>
<g>
</g>
<g>
</g>
<g>
</g>
<g>
</g>
<g>
</g>
<g>
</g>
<g>
</g>
<g>
</g>
<g>
</g>
</svg>
