<svg height="512" viewBox="0 0 55 60" width="512" xmlns="http://www.w3.org/2000/svg"><g id="048---Wallet"><path id="Shape" d="m52 36h-2v-16c0-2.209139-1.790861-4-4-4h-1v-9c0-1.65685425-1.3431458-3-3-3h-6.184c-.4222546-1.19435087-1.5492146-1.99474861-2.816-2h-6.184c-.4222546-1.19435086-1.5492146-1.99474861-2.816-2h-16c-1.65685425 0-3 1.34314575-3 3v13.09c-2.88330337.4898665-4.99457036 2.9853841-5 5.91v32c.00330738 3.3123376 2.68766243 5.9966926 6 6h40c2.209139 0 4-1.790861 4-4v-6h2c1.6568542 0 3-1.3431458 3-3v-8c0-1.6568542-1.3431458-3-3-3zm-6-18c1.1045695 0 2 .8954305 2 2v6.556c-.9182497-.4916562-1.9665476-.6859408-3-.556v-8zm-10 8v-6.79c3.516866.5602957 6.2941034 3.2845722 6.922 6.79zm-28.922 0c.556-3.94 4.341-7 8.922-7s8.366 3.06 8.922 7zm19.922-6.79c3.516866.5602957 6.2941034 3.2845722 6.922 6.79h-6.922zm16-12.21v3c-2.209139 0-4-1.790861-4-4h3c.5522847 0 1 .44771525 1 1zm0 5v9.245c-1.735727-2.1920408-4.236402-3.646362-7-4.071v-11.174h1c.0033074 3.31233757 2.6876624 5.9966926 6 6zm-10-8c.5522847 0 1 .44771525 1 1v3c-2.209139 0-4-1.790861-4-4zm1 6v11.245c-1.735727-2.1920408-4.236402-3.646362-7-4.071v-13.174h1c.0033074 3.31233757 2.6876624 5.99669262 6 6zm-10-8c.5522847 0 1 .44771525 1 1v3c-2.209139 0-4-1.790861-4-4zm-17 1c0-.55228475.44771525-1 1-1h3c0 2.209139-1.790861 4-4 4zm6-1h6c.0033074 3.31233757 2.6876624 5.99669262 6 6v13.269c-2.2088925-2.6989174-5.5123989-4.2640717-9-4.2640717s-6.79110753 1.5651543-9 4.2640717v-13.269c3.3123376-.00330738 5.9966926-2.68766243 6-6zm-8 16.142v7.716c-1.76420237-.4490235-2.99906467-2.0375517-2.99906467-3.858s1.2348623-3.4089765 2.99906467-3.858zm43 37.858c0 1.1045695-.8954305 2-2 2h-40c-2.209139 0-4-1.790861-4-4v-27.531c1.09858037.9866853 2.52337353 1.5320249 4 1.531h40c1.1045695 0 2 .8954305 2 2v6h-7c-3.8659932 0-7 3.1340068-7 7s3.1340068 7 7 7h7zm5-9c0 .5522847-.4477153 1-1 1h-11c-2.7614237 0-5-2.2385763-5-5s2.2385763-5 5-5h11c.5522847 0 1 .4477153 1 1z"/><path id="Shape" d="m41 40c-1.6568542 0-3 1.3431458-3 3s1.3431458 3 3 3 3-1.3431458 3-3-1.3431458-3-3-3zm0 4c-.5522847 0-1-.4477153-1-1s.4477153-1 1-1 1 .4477153 1 1-.4477153 1-1 1z"/><path id="Shape" d="m7 30h-2c-.55228475 0-1 .4477153-1 1s.44771525 1 1 1h2c.55228475 0 1-.4477153 1-1s-.44771525-1-1-1z"/><path id="Shape" d="m33 30h-22c-.5522847 0-1 .4477153-1 1s.4477153 1 1 1h22c.5522847 0 1-.4477153 1-1s-.4477153-1-1-1z"/></g></svg>